<?xml version="1.0" encoding="UTF-8"?><svg xmlns="http://www.w3.org/2000/svg" viewBox="0 0 378.51 224.59"><g id="a"/><g id="b"><g id="c"><path d="M197.9,108.5c0-5.24,0-10.47,0-15.71,0-1.11,.31-1.96,.99-2.97,5.76-8.59,10.85-17.59,15.1-27.03,1.37-3.05,2.14-6.37,2.76-9.73,.38-2.04,.81-4.05,.58-6.06-.28-2.56-.92-5.08-1.49-7.6-.05-.21-.94-.5-1.13-.35-.78,.61-1.44,1.37-2.15,2.07-8.39,8.37-16.77,16.75-25.17,25.12-.68,.68-1.48,1.24-2.22,1.86-.2-2.53-1.78-5.7-3.75-7.48,.79-.92,1.53-1.89,2.39-2.74,15.07-15.07,30.15-30.12,45.23-45.18,.35-.35,.71-.7,1.06-1.06q1.81-1.83,.14-3.65c-.25-.28-.71-.51-.75-.8-.05-.37,.13-1.04,.39-1.15,2.03-.82,4.07-1.65,6.17-2.26,3.66-1.07,7.31-2.16,10.83-3.65,.9-.38,1.46,.1,1.21,1.07-.43,1.68-.67,3.52-1.55,4.95-1.73,2.83-2.07,6.12-3.47,9.04-.64,1.33-.91,2.84-1.35,4.26-1.06-1.06-2.14-2.09-3.16-3.18-.39-.41-.59-.55-1.08-.06-5,5.04-10.03,10.06-15.07,15.06-.68,.68-.37,1.06-.06,1.84,1.15,2.91,2.51,5.75,2.63,9.03,.06,1.6,.62,3.23,.68,4.92,.21,6.04-1.47,11.69-3.41,17.28-1.71,4.92-3.98,9.59-6.6,14.08-2.65,4.53-5.15,9.13-8.18,13.43-.83,1.17-1.38,2.4-1.35,3.94,.1,3.98,.03,7.97,.03,11.95-.21-.09-.54-.11-.62-.27-2.06-4.09-4.09-8.2-6.13-12.3-.14-.28-.28-.57-.42-.85-.11,.33-.31,.65-.32,.98-.02,3.96,0,7.91-.02,11.87,0,.54,.28,1.32-.74,1.33Z" style="fill:#fff;"/><path d="M91.51,188.56c0-4.1-.02-8.2,.02-12.3,0-.64-.5-1.64,.53-1.85,.42-.09,1.06,.46,1.46,.86,3.19,3.14,6.28,6.39,9.54,9.45,2.28,2.15,4.77,4.06,7.17,6.08,2.5,2.49,5,4.99,7.49,7.48,2.47,2.59,4.94,5.19,7.42,7.78,.15,.15,.35,.25,.53,.38,.1-.21,.28-.41,.28-.63,.03-.87,.01-1.74,.01-2.62,0-8.48,0-16.95,0-25.43,0-1.89,.02-1.92,1.66-1.91,1.86,0,3.71,.07,5.57,.11,.09,1.83,.24,3.67,.25,5.5,.02,13.96,.01,27.93,0,41.89,0,.34-.16,.68-.25,1.01-.26-.19-.56-.35-.79-.58-4.24-4.22-8.47-8.47-12.73-12.68-.59-.59-1.3-1.07-1.96-1.6l-7.49-7.48c-2.21-2.08-4.41-4.17-6.63-6.24-1.2-1.12-2.43-2.21-3.65-3.32l-.21,5.07v10.47c0,4.35,0,8.7,0,13.06,0,1.88-.02,1.88-2.04,1.91-.87,0-1.74,0-2.62,0-3.56-.02-3.57-.02-3.58-3.42-.01-3.98,0-7.96,0-11.94v-19.05Z" style="fill:#fff;"/><path d="M140.23,199.76c-.33-7.29,2.36-13.06,7.01-17.71,4.77-4.77,10.7-7.23,17.68-7.03,3.05,.09,5.94,.8,8.67,1.77,2.48,.88,4.78,2.47,6.82,4.35,2.96,2.72,4.96,6.02,6.62,9.62,1.26,2.74,1.76,5.78,1.72,8.57-.06,4.27-1.12,8.52-3.54,12.32-2.16,3.4-4.84,6.19-8.2,8.33-3.86,2.46-8.25,3.46-12.68,3.63-2.89,.12-6.02-.41-8.69-1.5-2.99-1.22-5.84-3.11-8.27-5.25-2-1.76-3.74-4.12-4.8-6.56-1.48-3.43-2.97-7.04-2.33-10.53Zm23.95-17.19c-3.67,0-5.18,.48-8.42,2.22-2.95,1.58-4.71,4.3-6.23,6.98-1.16,2.05-1.78,4.7-1.72,7.06,.11,4.38,1.27,8.56,4.48,11.92,3.37,3.52,7.58,5.36,12.31,5.42,8.75,.1,15.92-8.14,16.19-16.22,.29-8.41-7.21-18.45-16.61-17.37Z" style="fill:#fff;"/><path d="M347.76,200.36c0-7.23,0-14.46,0-21.69,0-2.07,.02-2.08,2.25-2.08,3.74,0,7.49,.04,11.23-.02,2.9-.04,5.61,.9,8.35,1.58,2.44,.6,4.14,2.64,5.51,4.58,.86,1.23,1.46,2.98,1.16,4.74-.12,.73-.07,1.5-.01,2.24,.25,3.11-1.02,5.57-3.21,7.65-.54,.52-1.02,1.1-1.6,1.57-.62,.51-.21,.79,.16,1.06,.76,.55,1.53,1.09,2.34,1.59,3.18,1.96,4.79,4.73,4.56,8.53-.13,2.16,.33,4.37-.75,6.42-1.69,3.21-4.27,5.39-7.72,6.4-2.84,.83-5.71,1.59-8.73,1.54-3.87-.06-7.74,0-11.61-.02-1.89,0-1.91-.02-1.91-2.04,0-7.35,0-14.71,0-22.06Zm12.58,16.52v.11c1.12,0,2.25,.03,3.37,0,2.24-.06,4.17-.76,5.71-2.51,2.72-3.1,1.93-6.73-1.8-8.77-1.73-.95-3.45-1.5-5.4-1.44-2.23,.07-4.46,.08-6.69,.12-.09,2.21-.18,4.42-.26,6.62,0,.25-.01,.5,0,.75,.08,1.71,.17,3.42,.26,5.13h4.82Zm-5.22-26.55h.13c0,1.74,.05,3.48-.02,5.22-.04,.95,.24,1.3,1.23,1.26,1.98-.07,3.98-.14,5.96,0,2.76,.21,4.45-1.13,5.55-3.45,.67-1.42,1.3-3.03,.63-4.46-.78-1.66-1.57-3.39-3.67-4.18-1.18-.45-2.27-.64-3.45-.64-1.98,0-3.95,.04-5.93,.07-.14,2.06-.29,4.13-.43,6.19Z" style="fill:#fff;"/><path d="M171.68,39.67c-.26,.39-.48,.83-.8,1.16-10.49,10.5-21,20.98-31.5,31.47-1.27,1.26-1.39,1.3-2.14-.4-2.31-5.28-5.35-10.3-6.06-16.19-1.19-.95-.49-2.29-.71-3.45-.2-1.03-.68-2.04-.68-3.06,0-1.02,.75-2.07,.64-3.05-.39-3.46,.75-6.67,1.65-9.83,.97-3.41,2.41-6.73,4.39-9.77,2.54-3.9,5.57-7.38,9.04-10.45,2.83-2.5,6.03-4.53,9.34-6.35,.29-.16,.74-.02,1.11-.02,1.83,1.92,2.43,4.52,3.75,6.73-1.56,1.77-3.92,2.27-5.78,3.65-3.2,2.38-5.73,5.34-8.44,8.16-.66,.68-1.2,1.48-1.74,2.27-.46,.67-.9,1.37-1.26,2.1-3.14,6.36-4.4,13.09-3.71,20.13,.19,1.94,.94,3.83,1.47,5.74,.04,.15,.52,.36,.6,.3,.4-.3,.72-.68,1.08-1.03,7.68-7.67,15.36-15.34,23.05-23,.68-.68,1.48-1.24,2.22-1.86,.53,.11,1.15-.29,1.52,.56,.92,2.09,1.97,4.12,2.97,6.17Z" style="fill:#fff;"/><path d="M36.81,199.25c0-7.23,.01-14.46-.01-21.7,0-1.09-.11-1.79,1.51-1.77,9.49,.11,18.98,.07,28.47,.03,1.04,0,1.63,.11,1.52,1.36-.14,1.72-.13,3.45-.18,5.17-1.72,.07-3.44,.2-5.15,.21-5.74,.03-11.49,.04-17.23-.01-1.12-.01-1.49,.27-1.46,1.43,.08,3.36,.06,6.73,0,10.1-.02,1,.33,1.24,1.27,1.23,6.12-.04,12.24,.01,18.36-.05,1.21-.01,1.45,.42,1.39,1.5-.08,1.49-.17,3.01,.02,4.48,.2,1.56-.57,1.56-1.73,1.55-5.74-.04-11.49-.03-17.23-.02-2.03,0-2.08,.02-2.05,1.9,.06,3.58,.18,7.15,.28,10.73,3.48,.03,6.97,.07,10.45,.08,4.25,.01,8.49,.03,12.74-.02,.95,0,1.31,.24,1.27,1.24-.09,1.98-.07,3.97-.09,5.96-1.96,.1-3.91,.28-5.87,.29-8.12,.03-16.23,.02-24.35,.01-1.91,0-1.93-.02-1.93-2.03,0-7.23,0-14.46,0-21.7Z" style="fill:#fff;"/><path d="M339.5,224.59c-1.46-.13-3.07,.09-4.34-.47-1.36-.6-.95-2.51-1.63-3.74-.95-1.71-1.74-3.52-2.25-5.42-.34-1.26-1.03-1.74-2.34-1.73-4.74,.05-9.49,.05-14.23,0-1.18-.01-1.93,.42-2.17,1.49-.57,2.52-2.25,4.58-2.87,7.04-.56,2.25-1.79,3.09-4.03,2.73-.61-.1-1.25-.01-1.87-.02-2.93-.02-2.88,0-1.72-2.65,2.64-6.01,5.19-12.06,7.79-18.09,1.73-4.02,3.4-8.07,5.11-12.1,1.76-4.13,3.99-8.07,5.15-12.46,.31-1.2,1.13-2.29,1.83-3.34,.5-.76,.6-.84,1.19,.27,1.21,2.26,1.96,4.69,2.96,7.02,.99,2.32,2.28,4.51,3,6.99,.63,2.19,1.92,4.18,2.89,6.28,1.02,2.19,2.19,4.43,2.76,6.69,.61,2.42,2.74,4.19,2.54,6.83,1.59,1.94,2,4.41,3.05,6.59,.66,1.36,1.17,2.76,1.74,4.14,1.6,3.86,1.65,3.84-2.57,3.96Zm-17.54-18.07c.12,0,.25,0,.37,0,1.7-.09,3.4-.19,5.1-.28,.62-1.85-1.29-2.92-1.4-4.55-.02-.25,.1-.56-.02-.73-1.5-2.36-2.29-5-3.13-7.64-.13-.4-.67-.66-1.02-.98-.11,.33-.18,.67-.34,.97-1.69,3.26-2.73,6.79-4.41,10.08-1.51,2.96-1.21,3.11,2.24,3.12,.87,0,1.74,0,2.61,0Z" style="fill:#fff;"/><path d="M257.23,223.72h-.75c-4.04,0-3.99-.02-5.4-4.32-.61-1.85-1.5-3.62-2.22-5.44-.4-1.03-1.02-1.5-2.19-1.49-4.49,.06-8.99,.06-13.48,0-1.31-.02-1.84,.55-2.37,1.71-1.11,2.42-2.18,4.83-2.96,7.38-.61,2-.88,2.14-2.98,2.16-.62,0-1.25,0-1.87,0-3.89,0-3.98-.04-2.14-3.82,2.78-5.7,4.97-11.66,7.54-17.45,2.24-5.04,4.35-10.16,6.48-15.27,1.64-3.93,3.32-7.85,4.98-11.78,.13-.32,.21-.66,.31-.99,.35,.31,.89,.55,1.03,.93,1.9,5.33,4.57,10.34,6.55,15.61,2.03,5.4,4.41,10.65,6.58,15.98,1.77,4.35,3.5,8.78,5.76,12.95,.16,.3,.32,.62,.46,.93q1.27,2.89-1.45,2.91c-.62,0-1.25,0-1.87,0Zm-17.22-17.21c1.61,0,3.23,.02,4.84,0,1.07-.02,1.25-.35,.78-1.34-.5-1.04-.99-2.04-1.35-3.17-.9-2.83-2.2-5.53-3.36-8.27-.2-.47-.52-.89-.78-1.34-.34,.48-.74,.93-1.01,1.44-1.06,2.03-1.65,4.26-2.8,6.3-.56,1-.94,2.31-1.42,3.48-.86,2.07-.36,2.87,1.75,2.89,1.12,.01,2.23,0,3.35,0Z" style="fill:#fff;"/><path d="M31.71,209.14c-.49,5.89-2.64,10-7.97,12.47-2.55,1.19-5.18,2.06-7.74,1.99-5.4-.15-10.61-1.61-15.38-4.34-.78-.44-.69-1.16-.49-1.54,.88-1.64,1.9-3.21,2.92-4.77,.09-.13,.63-.18,.75-.06,2.97,2.89,7.06,2.88,10.67,4.09,.58,.19,4.83-1.08,5.75-1.46,1.31-.55,1.91-1.57,2.58-2.77,.88-1.57,.45-3.13,.42-4.66-.01-.67-.9-1.36-1.46-1.97-2.31-2.51-5.44-3.69-8.5-4.76-4-1.39-7.16-3.79-9.85-6.9-.41-.47-.41-1.32-.56-2-.99-4.76-1.13-8.91,2.62-12.71,2.2-2.23,4.79-3.14,7.73-4.02,4.79-1.43,11.71,.5,15.71,2.37,2.24,1.05,2.22,1.09,1.17,3.34-1.73,3.72-1.64,3.46-5.73,1.99-3.25-1.17-6.6-2.35-10.3-.89-4.16,1.64-5.42,5.82-2.42,9,1.85,1.95,4.37,2.67,6.68,3.78,2.5,1.2,5.13,1.97,7.57,3.47,2.59,1.59,3.78,3.82,4.86,6.26,.61,1.37,.7,2.97,.95,4.12Z" style="fill:#fff;"/><path d="M193.42,175.84c.25,0,.5-.01,.75,0,1.21,.09,2.73-.23,3.55,.38,.9,.66,1.27,2.15,1.66,3.35,.79,2.42,1.82,4.72,2.88,7.04,1.39,3.03,2.7,6.14,3.76,9.28,1,2.96,2.87,5.6,3.21,8.79,.04,.39,.66,.71,1.02,1.06,.18-.41,.36-.81,.53-1.22,1.5-3.74,3.12-7.43,4.41-11.26,1.25-3.71,2.8-7.31,4.35-10.91,.77-1.8,1.16-3.73,2.24-5.45,.46-.74,.66-1.07,1.46-1.05,1.75,.02,3.49,0,5.24,0,2.51,.01,2.8,.27,1.51,2.68-1.92,3.57-3.33,7.36-4.93,11.05-2.47,5.71-4.92,11.43-7.38,17.14-2.24,5.18-4.32,10.43-6.67,15.56-.24,.52-.21,1.15-.37,1.72-.05,.19-.32,.46-.47,.45-.33-.02-.77-.11-.95-.34-.28-.34-.4-.82-.55-1.26-1.93-5.31-4.34-10.42-6.6-15.59-2.3-5.28-4.52-10.59-6.83-15.87-2.08-4.74-3.96-9.58-6.15-14.28-.4-.85-.09-1.24,.99-1.26,1.12-.02,2.25,0,3.37,0Z" style="fill:#fff;"/><path d="M181.42,60.62c1.96,1.78,3.55,4.95,3.75,7.48-.62,.74-1.18,1.53-1.86,2.21-7.22,7.23-14.41,14.49-21.72,21.63-1.46,1.43-2.01,2.86-1.94,4.84,.13,3.48,.06,6.97,.02,10.46-.01,.92,.18,1.34,1.22,1.29,1.62-.08,3.24,0,4.86-.03,1.29-.03,2.36,.59,3.12,1.42,.66,.72,1.04,1.81,1.27,2.8,.28,1.18-1.85,3.8-3.08,4-.36,.06-.75,.01-1.12,0-4.98-.02-9.96-.05-14.93-.07-.1-4.94-.23-9.88-.3-14.81-.04-3.11,.01-6.23-.02-9.34-.01-1.02,.15-1.8,.97-2.61,9.83-9.73,19.6-19.51,29.4-29.28,.06-.06,.24,0,.37,0Z" style="fill:#fff;"/><path d="M266.83,200.26c0-6.98-.01-13.96,0-20.94,0-2.46,.28-2.72,2.78-2.73,5.86-.03,5.48-.55,5.47,5.3-.03,11.09-.01,22.19,0,33.28,0,1.79,.03,1.81,1.76,1.81,6.62,.01,13.23,.05,19.85-.03,1.33-.02,1.79,.27,1.64,1.64-.14,1.23,0,2.49-.04,3.74-.06,1.56-.63,2.11-2.25,2.13-2.75,.03-5.49,0-8.24,0-6.12,0-12.23,.01-18.35,0-2.14,0-2.61-.44-2.62-2.51-.02-7.23,0-14.46,0-21.69Z" style="fill:#fff;"/><path d="M174.67,46.4c3.09-3.21,6.1-6.5,9.29-9.61,4.77-4.66,9.66-9.19,14.5-13.77,.45-.43,.88-.89,1.33-1.32,.57-.55,.47-1.05-.08-1.54-.09-.08-.2-.16-.26-.27-.53-.97-2.47-1.31-1.83-2.58,.41-.82,1.91-1.26,3.01-1.54,5.17-1.33,10.12-3.34,15.22-4.85,.24-.07,.52-.02,.78-.03,0,.25,.08,.54-.02,.74-1.98,3.95-2.9,8.27-4.38,12.4-.47,1.32-1.21,2.49-1.61,3.83-.71,2.4-.78,2.38-2.47,.74-.27-.26-.55-.51-.79-.8-.51-.62-.8-.84-1.63-.12-7.93,6.95-15.21,14.58-22.71,21.98-1.48,1.46-3.07,2.83-4.6,4.24-.75-2.74-2-5.24-3.75-7.48Z" style="fill:#fff;"/><path d="M178.42,128.7c-7.48,0-14.97-.05-22.45,.05-1.41,.02-2.12-.8-2.66-1.65-.6-.94-1.13-2.2-1.03-3.26,.16-1.79,3.01-3.96,4.88-4.11,.62-.05,1.25,0,1.87,0,13.22,0,26.44,0,39.66,0,.87,0,1.78-.16,2.6,.06,2.74,.71,4.16,3.87,3.04,6.61-.62,1.52-1.81,2.3-3.46,2.31-3.24,.01-6.49,0-9.73,0h-12.72Z" style="fill:#fff;"/><path d="M91.51,188.56v10.47c-2.9-1.04-4.52-3.63-6.68-5.55-.28-.25-.52-.54-.8-.78-.14-.12-.35-.17-.52-.25-.08,.22-.22,.43-.22,.65-.01,5.11,0,10.22,0,15.33,0,4.49-.01,8.97,.01,13.46,0,.76-.18,1.18-1.01,1.1-.25-.02-.5,0-.75,0-1.85-.06-3.7-.11-5.55-.17-.07-1.84-.19-3.68-.19-5.53-.02-13.59,0-27.17,0-40.76,0-.5-.03-1,.01-1.49,.02-.21,.19-.41,.3-.62,.18,.14,.37,.26,.53,.41,4.58,4.32,9.15,8.64,13.73,12.95,.34,.32,.77,.54,1.16,.8Z" style="fill:#fff;"/><path d="M174.67,46.4c1.75,2.24,3,4.74,3.75,7.48-.92,.79-1.89,1.53-2.74,2.38-9.62,9.58-19.21,19.17-28.82,28.76-1.25,1.25-1.25,1.23-2.16-.41-.84-1.52-1.65-3.07-2.62-4.51-.69-1.03-.57-1.8,.29-2.57,3.85-3.43,6.89-7.73,11.31-10.58,.72-.46,1.25-1.21,1.86-1.83,5.73-5.72,11.45-11.44,17.19-17.15,.59-.59,1.3-1.06,1.95-1.59Z" style="fill:#fff;"/><path d="M178.82,140.67c-5.12,0-10.24-.14-15.34,.06-2.19,.09-3.22-.98-3.81-2.98-1.04-3.58,.56-6.04,4.16-6.05,9.73-.04,19.46,0,29.19-.03,1.56,0,2.74,.67,3.83,1.61,1.25,1.08,1.55,4.84,.5,6.05-.72,.84-1.49,1.42-2.81,1.38-5.24-.12-10.48-.05-15.72-.05Z" style="fill:#fff;"/><path d="M159.69,16.48c-1.31-2.21-1.92-4.81-3.75-6.73,1.76-1.79,4.17-2.17,6.38-3,4.76-1.79,9.68-2.52,14.76-2.25,1.86,.1,3.74-.07,5.6,.03,4.6,.26,9,1.49,13.33,2.98,.11,.04,.17,.2,.27,.24,1.27,.53,2.55,1.06,3.83,1.58-1.03,1.06-2.06,2.12-3.09,3.16-1.05,1.06-1.95,2.54-3.22,3.02-.86,.32-2.22-1.1-3.41-1.21-2.26-.21-4.28-1.4-6.47-1.51-4.1-.19-8.25-.37-12.31,.04-3.54,.36-6.95,1.7-10.26,3.11-.53,.23-1.1,.36-1.65,.53Z" style="fill:#fff;"/><path d="M99.75,208.01v-10.47c2.21,2.08,4.41,4.17,6.63,6.24,1.2,1.12,2.43,2.21,3.65,3.32l.21-5.07,7.49,7.48c0,4.6,0,9.2,0,13.79,0,.34-.14,.68-.22,1.02-.26-.17-.54-.32-.79-.5-5.45-4.09-9.84-9.3-14.75-13.96-.7-.66-1.48-1.24-2.22-1.85Z" style="fill:#fff;"/><path d="M171.68,39.67c-1-2.05-2.05-4.08-2.97-6.17-.37-.85-.99-.46-1.52-.56,.44-.56,.84-1.16,1.32-1.68,.76-.82,2.11-1.53,2.2-2.39,.07-.71-1.3-1.6-2.09-2.34-.85-.81-.55-.7,.4-1.15,3.36-1.57,7-2.28,10.41-3.65,1.6-.64,3.23-1.19,4.87-1.74,.66-.22,1.34-.42,2.03-.5,1.24-.13,.69,.2,.51,1.07-.53,2.64-2.12,4.85-2.56,7.55-.4,2.44-1.65,4.75-2.51,7.12-.16,.43-.2,.91-.34,1.35-.48,1.52-.99,1.69-2.03,.69-2.51-2.41-2.49-2.39-4.97,.03-.86,.84-1.82,1.59-2.74,2.38Z" style="fill:#fff;"/><path d="M197.9,108.5c1.02,0,.74-.79,.74-1.33,.02-3.96,0-7.91,.02-11.87,0-.33,.21-.65,.32-.98,.14,.28,.28,.57,.42,.85,2.04,4.1,4.07,8.21,6.13,12.3,.08,.15,.41,.18,.62,.27,0,2.6-.05,5.2,.02,7.8,.03,1.05-.4,1.2-1.3,1.19-4.22-.03-8.43,0-12.65-.04-.67,0-1.48-.17-1.97-.57-.81-.68-1.65-1.52-2.04-2.47-.55-1.35,.72-3.63,2.18-4.4,.83-.44,1.6-.9,2.67-.8,1.6,.16,3.22,.04,4.83,.04Z" style="fill:#fff;"/><path d="M178.49,143.67c4.1,0,8.2,0,12.29,.01,.34,0,.96,.15,.96,.25,.02,.42-.02,.94-.27,1.25-1.59,2.06-3.12,4.05-5.37,5.63-2.05,1.44-4.26,1.93-6.44,2.49-2.05,.52-4.11-.48-6.09-1.33-3.59-1.54-5.88-4.57-8.58-7.14-.4-.38,.14-1.14,.83-1.15,1.49-.02,2.98,0,4.47,0h8.2Z" style="fill:#fff;"/><path d="M117.73,198.28c-2.5-2.49-5-4.99-7.49-7.48,0-2.86,.03-5.72-.01-8.58-.03-1.66,.34-3.36-.68-4.95-.3-.47-.33-1.51,.94-1.45,2.34,.1,4.69,.12,7.03,.17,.07,2.21,.2,4.42,.21,6.62,.03,5.22,.01,10.45,.01,15.67Z" style="fill:#fff;"/><path d="M110.24,202.03l-.21,5.07c-1.22-1.1-2.45-2.19-3.65-3.32-2.22-2.07-4.42-4.16-6.63-6.24l.21-5.07c1.22,1.1,2.45,2.19,3.65,3.32,2.22,2.07,4.42,4.16,6.63,6.24Z" style="fill:#fff;"/><path d="M174.66,199.39c.32,4.75-2.09,7.65-5.88,9.62-3.72,1.93-8.91,.77-10.96-1.72-.55-.67-1.24-1.23-1.84-1.86-1.02-1.07-1.64-2.3-1.55-3.84,.15-2.48-.11-4.87,1.24-7.34,1.78-3.26,4.56-4.3,7.7-4.9,3.26-.62,6.14,.8,8.48,2.85,2.12,1.85,3.2,4.42,2.81,7.18Z" style="fill:#fff;"/></g></g></svg>