<?xml version="1.0" encoding="UTF-8"?><svg xmlns="http://www.w3.org/2000/svg" viewBox="0 0 118.37 153.44"><g id="a"/><g id="b"><g id="c"><path d="M68.13,108.5c0-5.24,0-10.47,0-15.71,0-1.11,.31-1.96,.99-2.97,5.76-8.59,10.85-17.59,15.1-27.03,1.37-3.05,2.14-6.37,2.76-9.73,.38-2.04,.81-4.05,.58-6.06-.28-2.56-.92-5.08-1.49-7.6-.05-.21-.94-.5-1.13-.35-.78,.61-1.44,1.37-2.15,2.07-8.39,8.37-16.77,16.75-25.17,25.12-.68,.68-1.48,1.24-2.22,1.86-.2-2.53-1.78-5.7-3.75-7.48,.79-.92,1.53-1.89,2.39-2.74,15.07-15.07,30.15-30.12,45.23-45.18,.35-.35,.71-.7,1.06-1.06q1.81-1.83,.14-3.65c-.25-.28-.71-.51-.75-.8-.05-.37,.13-1.04,.39-1.15,2.03-.82,4.07-1.65,6.17-2.26,3.66-1.07,7.31-2.16,10.83-3.65,.9-.38,1.46,.1,1.21,1.07-.43,1.68-.67,3.52-1.55,4.95-1.73,2.83-2.07,6.12-3.47,9.04-.64,1.33-.91,2.84-1.35,4.26-1.06-1.06-2.14-2.09-3.16-3.18-.39-.41-.59-.55-1.08-.06-5,5.04-10.03,10.06-15.07,15.06-.68,.68-.37,1.06-.06,1.84,1.15,2.91,2.51,5.75,2.63,9.03,.06,1.6,.62,3.23,.68,4.92,.21,6.04-1.47,11.69-3.41,17.28-1.71,4.92-3.98,9.59-6.6,14.08-2.65,4.53-5.15,9.13-8.18,13.43-.83,1.17-1.38,2.4-1.35,3.94,.1,3.98,.03,7.97,.03,11.95-.21-.09-.54-.11-.62-.27-2.06-4.09-4.09-8.2-6.13-12.3-.14-.28-.28-.57-.42-.85-.11,.33-.31,.65-.32,.98-.02,3.96,0,7.91-.02,11.87,0,.54,.28,1.32-.74,1.33Z" style="fill:#fff;"/><path d="M41.9,39.67c-.26,.39-.48,.83-.8,1.16-10.49,10.5-21,20.98-31.5,31.47-1.27,1.26-1.39,1.3-2.14-.4-2.31-5.28-5.35-10.3-6.06-16.19-1.19-.95-.49-2.29-.71-3.45C.49,51.23,0,50.22,0,49.21,0,48.19,.75,47.13,.64,46.16c-.39-3.46,.75-6.67,1.65-9.83,.97-3.41,2.41-6.73,4.39-9.77,2.54-3.9,5.57-7.38,9.04-10.45,2.83-2.5,6.03-4.53,9.34-6.35,.29-.16,.74-.02,1.11-.02,1.83,1.92,2.43,4.52,3.75,6.73-1.56,1.77-3.92,2.27-5.78,3.65-3.2,2.38-5.73,5.34-8.44,8.16-.66,.68-1.2,1.48-1.74,2.27-.46,.67-.9,1.37-1.26,2.1-3.14,6.36-4.4,13.09-3.71,20.13,.19,1.94,.94,3.83,1.47,5.74,.04,.15,.52,.36,.6,.3,.4-.3,.72-.68,1.08-1.03,7.68-7.67,15.36-15.34,23.05-23,.68-.68,1.48-1.24,2.22-1.86,.53,.11,1.15-.29,1.52,.56,.92,2.09,1.97,4.12,2.97,6.17Z" style="fill:#fff;"/><path d="M51.64,60.62c1.96,1.78,3.55,4.95,3.75,7.48-.62,.74-1.18,1.53-1.86,2.21-7.22,7.23-14.41,14.49-21.72,21.63-1.46,1.43-2.01,2.86-1.94,4.84,.13,3.48,.06,6.97,.02,10.46-.01,.92,.18,1.34,1.22,1.29,1.62-.08,3.24,0,4.86-.03,1.29-.03,2.36,.59,3.12,1.42,.66,.72,1.04,1.81,1.27,2.8,.28,1.18-1.85,3.8-3.08,4-.36,.06-.75,.01-1.12,0-4.98-.02-9.96-.05-14.93-.07-.1-4.94-.23-9.88-.3-14.81-.04-3.11,.01-6.23-.02-9.34-.01-1.02,.15-1.8,.97-2.61,9.83-9.73,19.6-19.51,29.4-29.28,.06-.06,.24,0,.37,0Z" style="fill:#fff;"/><path d="M44.9,46.4c3.09-3.21,6.1-6.5,9.29-9.61,4.77-4.66,9.66-9.19,14.5-13.77,.45-.43,.88-.89,1.33-1.32,.57-.55,.47-1.05-.08-1.54-.09-.08-.2-.16-.26-.27-.53-.97-2.47-1.31-1.83-2.58,.41-.82,1.91-1.26,3.01-1.54,5.17-1.33,10.12-3.34,15.22-4.85,.24-.07,.52-.02,.78-.03,0,.25,.08,.54-.02,.74-1.98,3.95-2.9,8.27-4.38,12.4-.47,1.32-1.21,2.49-1.61,3.83-.71,2.4-.78,2.38-2.47,.74-.27-.26-.55-.51-.79-.8-.51-.62-.8-.84-1.63-.12-7.93,6.95-15.21,14.58-22.71,21.98-1.48,1.46-3.07,2.83-4.6,4.24-.75-2.74-2-5.24-3.75-7.48Z" style="fill:#fff;"/><path d="M48.65,128.7c-7.48,0-14.97-.05-22.45,.05-1.41,.02-2.12-.8-2.66-1.65-.6-.94-1.13-2.2-1.03-3.26,.16-1.79,3.01-3.96,4.88-4.11,.62-.05,1.25,0,1.87,0,13.22,0,26.44,0,39.66,0,.87,0,1.78-.16,2.6,.06,2.74,.71,4.16,3.87,3.04,6.61-.62,1.52-1.81,2.3-3.46,2.31-3.24,.01-6.49,0-9.73,0h-12.72Z" style="fill:#fff;"/><path d="M44.9,46.4c1.75,2.24,3,4.74,3.75,7.48-.92,.79-1.89,1.53-2.74,2.38-9.62,9.58-19.21,19.17-28.82,28.76-1.25,1.25-1.25,1.23-2.16-.41-.84-1.52-1.65-3.07-2.62-4.51-.69-1.03-.57-1.8,.29-2.57,3.85-3.43,6.89-7.73,11.31-10.58,.72-.46,1.25-1.21,1.86-1.83,5.73-5.72,11.45-11.44,17.19-17.15,.59-.59,1.3-1.06,1.95-1.59Z" style="fill:#fff;"/><path d="M49.05,140.67c-5.12,0-10.24-.14-15.34,.06-2.19,.09-3.22-.98-3.81-2.98-1.04-3.58,.56-6.04,4.16-6.05,9.73-.04,19.46,0,29.19-.03,1.56,0,2.74,.67,3.83,1.61,1.25,1.08,1.55,4.84,.5,6.05-.72,.84-1.49,1.42-2.81,1.38-5.24-.12-10.48-.05-15.72-.05Z" style="fill:#fff;"/><path d="M29.92,16.48c-1.31-2.21-1.92-4.81-3.75-6.73,1.76-1.79,4.17-2.17,6.38-3,4.76-1.79,9.68-2.52,14.76-2.25,1.86,.1,3.74-.07,5.6,.03,4.6,.26,9,1.49,13.33,2.98,.11,.04,.17,.2,.27,.24,1.27,.53,2.55,1.06,3.83,1.58-1.03,1.06-2.06,2.12-3.09,3.16-1.05,1.06-1.95,2.54-3.22,3.02-.86,.32-2.22-1.1-3.41-1.21-2.26-.21-4.28-1.4-6.47-1.51-4.1-.19-8.25-.37-12.31,.04-3.54,.36-6.95,1.7-10.26,3.11-.53,.23-1.1,.36-1.65,.53Z" style="fill:#fff;"/><path d="M41.9,39.67c-1-2.05-2.05-4.08-2.97-6.17-.37-.85-.99-.46-1.52-.56,.44-.56,.84-1.16,1.32-1.68,.76-.82,2.11-1.53,2.2-2.39,.07-.71-1.3-1.6-2.09-2.34-.85-.81-.55-.7,.4-1.15,3.36-1.57,7-2.28,10.41-3.65,1.6-.64,3.23-1.19,4.87-1.74,.66-.22,1.34-.42,2.03-.5,1.24-.13,.69,.2,.51,1.07-.53,2.64-2.12,4.85-2.56,7.55-.4,2.44-1.65,4.75-2.51,7.12-.16,.43-.2,.91-.34,1.35-.48,1.52-.99,1.69-2.03,.69-2.51-2.41-2.49-2.39-4.97,.03-.86,.84-1.82,1.59-2.74,2.38Z" style="fill:#fff;"/><path d="M68.13,108.5c1.02,0,.74-.79,.74-1.33,.02-3.96,0-7.91,.02-11.87,0-.33,.21-.65,.32-.98,.14,.28,.28,.57,.42,.85,2.04,4.1,4.07,8.21,6.13,12.3,.08,.15,.41,.18,.62,.27,0,2.6-.05,5.2,.02,7.8,.03,1.05-.4,1.2-1.3,1.19-4.22-.03-8.43,0-12.65-.04-.67,0-1.48-.17-1.97-.57-.81-.68-1.65-1.52-2.04-2.47-.55-1.35,.72-3.63,2.18-4.4,.83-.44,1.6-.9,2.67-.8,1.6,.16,3.22,.04,4.83,.04Z" style="fill:#fff;"/><path d="M48.72,143.67c4.1,0,8.2,0,12.29,.01,.34,0,.96,.15,.96,.25,.02,.42-.02,.94-.27,1.25-1.59,2.06-3.12,4.05-5.37,5.63-2.05,1.44-4.26,1.93-6.44,2.49-2.05,.52-4.11-.48-6.09-1.33-3.59-1.54-5.88-4.57-8.58-7.14-.4-.38,.14-1.14,.83-1.15,1.49-.02,2.98,0,4.47,0h8.2Z" style="fill:#fff;"/></g></g></svg>